<svg width="145" height="32" viewBox="0 0 145 32" fill="none" xmlns="http://www.w3.org/2000/svg">
<mask id="mask0_9766_15093" style="mask-type:luminance" maskUnits="userSpaceOnUse" x="2" y="20" width="6" height="5">
<path d="M2.03009 20.7905H7.69221V25H2.03009V20.7905Z" fill="white"/>
</mask>
<g mask="url(#mask0_9766_15093)">
<path fill-rule="evenodd" clip-rule="evenodd" d="M5.66137 24.3826L7.67271 20.9885H2.05152V25H5.30056L5.66137 24.3826Z" fill="#040B05"/>
</g>
<mask id="mask1_9766_15093" style="mask-type:luminance" maskUnits="userSpaceOnUse" x="2" y="13" width="10" height="5">
<path d="M2.03009 13.6486H11.9772V17.9336H2.03009V13.6486Z" fill="white"/>
</mask>
<g mask="url(#mask1_9766_15093)">
<path fill-rule="evenodd" clip-rule="evenodd" d="M11.927 13.814H2.05152V17.7482H9.60594L11.927 13.814Z" fill="#040B05"/>
</g>
<mask id="mask2_9766_15093" style="mask-type:luminance" maskUnits="userSpaceOnUse" x="2" y="7" width="15" height="5">
<path d="M2.0302 7H16.0241V11.0301H2.0302V7Z" fill="white"/>
</mask>
<g mask="url(#mask2_9766_15093)">
<path fill-rule="evenodd" clip-rule="evenodd" d="M15.9487 7.00005H2.05152V10.9344H13.6287L15.9487 7.00005Z" fill="#040B05"/>
</g>
<mask id="mask3_9766_15093" style="mask-type:luminance" maskUnits="userSpaceOnUse" x="8" y="7" width="23" height="18">
<path d="M8.88248 7.00004H30.5453V25H8.88248V7.00004Z" fill="white"/>
</mask>
<g mask="url(#mask3_9766_15093)">
<path d="M19.7186 7.00006L9.04436 25H30.3157L19.7186 7.00006ZM19.6925 13.8915L23.9216 21.0656H15.4382L19.6925 13.8915Z" fill="url(#paint0_linear_9766_15093)"/>
</g>
<mask id="mask4_9766_15093" style="mask-type:luminance" maskUnits="userSpaceOnUse" x="60" y="9" width="14" height="14">
<path d="M60.3789 9.4687H73.3459V22.5313H60.3789V9.4687Z" fill="white"/>
</mask>
<g mask="url(#mask4_9766_15093)">
<path d="M72.3422 11.8748L70.6976 13.5182C69.6521 12.4214 68.4546 11.8748 67.0614 11.8748C65.8644 11.8748 64.8182 12.2738 64.0241 13.0711C63.2256 13.869 62.7783 14.8626 62.7783 16.007C62.7783 17.152 63.1779 18.1969 64.0241 18.9947C64.8701 19.841 65.9164 20.2392 67.1613 20.2392C67.9599 20.2392 68.654 20.0916 69.205 19.7408C69.7558 19.3901 70.2031 18.8435 70.55 18.1494H67.0137V15.9595H73.1927V16.4579C73.1927 17.5547 72.8932 18.6003 72.3467 19.4938C71.7995 20.4388 71.0491 21.1847 70.2031 21.6837C69.3051 22.1821 68.2589 22.4298 67.0657 22.4298C65.7681 22.4298 64.6744 22.1303 63.677 21.5836C62.6791 21.0371 61.8329 20.1917 61.2857 19.1943C60.6874 18.1969 60.3877 17.0525 60.4397 15.9076C60.4397 14.2642 60.9862 12.8716 62.0324 11.6753C63.3293 10.2827 64.9703 9.53296 67.0137 9.53296C68.0593 9.53296 69.0574 9.73244 70.0035 10.1314C70.8014 10.4785 71.5963 11.0769 72.3467 11.8748H72.3422Z" fill="#040B05"/>
</g>
<path d="M36.5501 9.63689H43.2762V11.9268H38.8932V14.1687H43.2762V16.4105H38.8932V19.6452H43.2762V21.8871H36.5501V9.63689Z" fill="#040B05"/>
<path d="M47.7584 9.63689H50.5487C52.341 9.63689 53.6379 9.83637 54.5359 10.2828C55.3826 10.73 56.1287 11.4278 56.6795 12.4252C57.2267 13.4226 57.5257 14.567 57.5257 15.9114C57.5257 16.8088 57.3781 17.7023 57.0266 18.5002C56.7276 19.2983 56.2805 19.9442 55.7297 20.4908C55.1825 21.0373 54.584 21.3887 53.9374 21.5881C53.2907 21.7877 52.1927 21.8871 50.6006 21.8871H47.8104L47.7623 9.64064L47.7584 9.63689ZM50.1016 11.8787V19.5971H51.1991C52.2447 19.5971 53.0432 19.4976 53.5423 19.2501C54.0413 19.0031 54.4403 18.6041 54.7397 18.0056C55.0392 17.4072 55.1868 16.7094 55.1868 15.8639C55.1868 14.567 54.8392 13.574 54.0888 12.8279C53.4422 12.182 52.3966 11.8824 50.8997 11.8824H50.1016V11.8787Z" fill="#040B05"/>
<path d="M76.9409 9.88383H83.6664V12.1738H79.2838V14.4156H83.6664V16.6574H79.2838V19.8923H83.6664V22.1346H76.9409V9.88383Z" fill="#040B05"/>
<path d="M90.1163 9.88389H92.9065C94.6986 9.88389 95.9955 10.0834 96.8942 10.5305C97.7402 10.977 98.487 11.6755 99.0371 12.6722C99.5843 13.6696 99.884 14.8146 99.884 16.1591C99.884 17.0564 99.7357 17.9501 99.4367 18.7479C99.1372 19.5458 98.6901 20.1917 98.1391 20.7383C97.5883 21.2848 96.9936 21.6358 96.347 21.8351C95.7003 22.0347 94.603 22.1346 93.0102 22.1346H90.22L90.1206 9.88825L90.1163 9.88389ZM92.4592 12.1257V19.8448H93.5568C94.603 19.8448 95.4009 19.7447 95.8999 19.4976C96.399 19.2501 96.7466 18.8516 97.0974 18.2534C97.3968 17.6549 97.5444 16.957 97.5444 16.1109C97.5444 14.8146 97.1975 13.8216 96.4471 13.0756C95.8005 12.429 94.7542 12.1301 93.3097 12.1301H92.463L92.4592 12.1257Z" fill="#040B05"/>
<path d="M102.997 9.88389H109.723V12.1738H105.34V14.4157H109.723V16.6575H105.34V19.8923H109.723V22.1346H102.997V9.88389Z" fill="#040B05"/>
<path d="M114.229 9.88389H116.572V19.9404H119.961V22.1303H114.233V9.88389H114.229Z" fill="#040B05"/>
<path d="M122.816 9.88389H129.589V12.1738H127.345V22.1303H124.955V12.1738H122.764V9.88389H122.816Z" fill="#040B05"/>
<mask id="mask5_9766_15093" style="mask-type:luminance" maskUnits="userSpaceOnUse" x="130" y="9" width="13" height="14">
<path d="M130.968 9.77634H142.97V22.2629H130.968V9.77634Z" fill="white"/>
</mask>
<g mask="url(#mask5_9766_15093)">
<path d="M135.844 9.88394H138.234L142.969 22.1304H140.478L139.532 19.5897H134.498L133.501 22.1304H131.058L135.84 9.88394H135.844ZM137.041 13.1194L135.396 17.3516H138.686L137.041 13.1194Z" fill="#040B05"/>
</g>
<defs>
<linearGradient id="paint0_linear_9766_15093" x1="14.3483" y1="10.1154" x2="28.2218" y2="12.3583" gradientUnits="userSpaceOnUse">
<stop stop-color="#00DA63"/>
<stop offset="1" stop-color="#27A1FF"/>
</linearGradient>
</defs>
</svg>
